<svg t="1628233667894" class="icon" viewBox="0 0 1156 1024" version="1.1" xmlns="http://www.w3.org/2000/svg" p-id="2319" width="200" height="200"><path d="M854.44363 836.977778l-105.528889-105.528889a185.144889 185.144889 0 1 0-40.220444 40.220444l105.528889 105.528889a28.444444 28.444444 0 0 0 40.220444-40.220444z m-345.173333-123.932445a128 128 0 1 1 181.020444 0 128.170667 128.170667 0 0 1-181.020444 0zM122.28363 300.174222h363.121778v56.888889H122.28363zM116.708519 688.412444h165.973333v56.888889H116.708519zM116.708519 494.279111h246.613333v56.888889h-246.613333z" fill="#727272" p-id="2320"></path><path d="M748.232074 57.799111H603.592074v-22.385778A35.470222 35.470222 0 0 0 568.178741 0H212.338741A35.470222 35.470222 0 0 0 176.925408 35.413333v22.385778H33.992074A34.304 34.304 0 0 0 0.000963 92.330667v780.174222a34.304 34.304 0 0 0 33.991111 34.531555H397.938741v-56.888888H56.889852V114.688h120.035556v20.565333A35.470222 35.470222 0 0 0 212.338741 170.666667h355.84a35.470222 35.470222 0 0 0 35.413333-35.413334v-20.565333h121.742223v252.899556h56.888889V92.330667a34.304 34.304 0 0 0-33.991112-34.531556z m-201.528888 0V113.777778h-312.888889V56.888889h312.888889z" fill="#727272" p-id="2321"></path></svg>